HIERARCHY
ROOT Hips
{
	OFFSET 0.000000 0.000000 0.000000
	CHANNELS 6 Xposition Yposition Zposition Zrotation Yrotation Xrotation 
	JOINT LHipJoint
	{
		OFFSET 0.000000 0.000000 0.000000
		CHANNELS 3 Zrotation Yrotation Xrotation
		JOINT LeftUpLeg
		{
			OFFSET 1.363060 -1.794630 0.839290
			CHANNELS 3 Zrotation Yrotation Xrotation
			JOINT LeftLeg
			{
				OFFSET 2.448110 -6.726130 0.000000
				CHANNELS 3 Zrotation Yrotation Xrotation
				JOINT LeftFoot
				{
					OFFSET 2.562200 -7.039590 0.000000
					CHANNELS 3 Zrotation Yrotation Xrotation
					JOINT LeftToeBase
					{
						OFFSET 0.157640 -0.433110 2.322550
						CHANNELS 3 Zrotation Yrotation Xrotation
						End Site
						{
							OFFSET 0.000000 0.000000 0.000000
						}
					}
				}
			}
		}
	}
	JOINT RHipJoint
	{
		OFFSET 0.000000 0.000000 0.000000
		CHANNELS 3 Zrotation Yrotation Xrotation
		JOINT RightUpLeg
		{
			OFFSET -1.305520 -1.794630 0.839290
			CHANNELS 3 Zrotation Yrotation Xrotation
			JOINT RightLeg
			{
				OFFSET -2.542530 -6.985550 0.000000
				CHANNELS 3 Zrotation Yrotation Xrotation
				JOINT RightFoot
				{
					OFFSET -2.568260 -7.056230 0.000000
					CHANNELS 3 Zrotation Yrotation Xrotation
					JOINT RightToeBase
					{
						OFFSET -0.164730 -0.452590 2.363150
						CHANNELS 3 Zrotation Yrotation Xrotation
						End Site
						{
							OFFSET 0.000000 0.000000 0.000000
						}
					}
				}
			}
		}
	}
	JOINT LowerBack
	{
		OFFSET 0.000000 0.000000 0.000000
		CHANNELS 3 Zrotation Yrotation Xrotation
		JOINT Spine
		{
			OFFSET 0.028270 2.035590 -0.193380
			CHANNELS 3 Zrotation Yrotation Xrotation
			JOINT Spine1
			{
				OFFSET 0.056720 2.048850 -0.042750
				CHANNELS 3 Zrotation Yrotation Xrotation
				JOINT Neck
				{
					OFFSET 0.000000 0.000000 0.000000
					CHANNELS 3 Zrotation Yrotation Xrotation
					JOINT Neck1
					{
						OFFSET -0.054170 1.746240 0.172020
						CHANNELS 3 Zrotation Yrotation Xrotation
						JOINT Head
						{
							OFFSET 0.104070 1.761360 -0.123970
							CHANNELS 3 Zrotation Yrotation Xrotation
							End Site
							{
								OFFSET 0.000000 0.000000 0.000000
							}
						}
					}
				}
				JOINT LeftShoulder
				{
					OFFSET 0.000000 0.000000 0.000000
					CHANNELS 3 Zrotation Yrotation Xrotation
					JOINT LeftArm
					{
						OFFSET 3.362410 1.200890 -0.311210
						CHANNELS 3 Zrotation Yrotation Xrotation
						JOINT LeftForeArm
						{
							OFFSET 4.983000 -0.000000 -0.000000
							CHANNELS 3 Zrotation Yrotation Xrotation
							JOINT LeftHand
							{
								OFFSET 3.483560 -0.000000 -0.000000
								CHANNELS 3 Zrotation Yrotation Xrotation
								JOINT LeftFingerBase
								{
									OFFSET 0.000000 0.000000 0.000000
									CHANNELS 3 Zrotation Yrotation Xrotation
									JOINT LeftHandIndex1
									{
										OFFSET 0.715260 -0.000000 -0.000000
										CHANNELS 3 Zrotation Yrotation Xrotation
										End Site
										{
											OFFSET 0.000000 0.000000 0.000000
										}
									}
								}
								JOINT LThumb
								{
									OFFSET 0.000000 0.000000 0.000000
									CHANNELS 3 Zrotation Yrotation Xrotation
									End Site
									{
										OFFSET 0.000000 0.000000 0.000000
									}
								}
							}
						}
					}
				}
				JOINT RightShoulder
				{
					OFFSET 0.000000 0.000000 0.000000
					CHANNELS 3 Zrotation Yrotation Xrotation
					JOINT RightArm
					{
						OFFSET -3.136600 1.374050 -0.404650
						CHANNELS 3 Zrotation Yrotation Xrotation
						JOINT RightForeArm
						{
							OFFSET -5.241900 -0.000000 -0.000000
							CHANNELS 3 Zrotation Yrotation Xrotation
							JOINT RightHand
							{
								OFFSET -3.444170 -0.000000 -0.000000
								CHANNELS 3 Zrotation Yrotation Xrotation
								JOINT RightFingerBase
								{
									OFFSET 0.000000 0.000000 0.000000
									CHANNELS 3 Zrotation Yrotation Xrotation
									JOINT RightHandIndex1
									{
										OFFSET -0.622530 -0.000000 -0.000000
										CHANNELS 3 Zrotation Yrotation Xrotation
										End Site
										{
											OFFSET 0.000000 0.000000 0.000000
										}
									}
								}
								JOINT RThumb
								{
									OFFSET 0.000000 0.000000 0.000000
									CHANNELS 3 Zrotation Yrotation Xrotation
									End Site
									{
										OFFSET 0.000000 0.000000 0.000000
									}
								}
							}
						}
					}
				}
			}
		}
	}
}
MOTION
Frames: 10
Frame Time: 0.008333
-9.600171 17.675204 -6.214943 -148.110550 69.146301 -146.816892 17.428348 1.611127 -3.224734 -17.283680 -10.763637 -23.779825 0.699296 20.969505 51.288871 -1.402710 8.350983 -9.467970 12.232800 -18.487300 -66.724800 -24.514130 -4.500235 -4.809301 58.671012 6.188691 9.833650 15.459288 -0.129940 0.263247 -2.907846 -12.860857 -34.288091 -0.059900 -1.579500 4.345000 5.565376 0.373341 11.536336 2.898065 1.433861 -4.649163 7.274421 1.285459 -15.445182 -7.455289 -9.091555 -11.873831 1.379384 -10.127713 18.906917 -1.007000 -4.278300 14.549400 7.219791 -5.787427 0.667364 -76.473135 -10.994189 32.476850 51.475112 -51.877040 -25.533348 -1.051413 1.653905 2.453952 31.512820 28.951859 16.072100 -7.125000 0.000000 0.000000 3.206300 60.787800 1.234400 -5.599079 5.203048 -1.253464 -10.336650 58.679123 -14.659488 -29.936815 40.667051 -10.167784 -0.084372 -1.414622 17.652618 -41.263824 -8.263650 5.651600 7.125000 0.000000 0.000000 -12.794900 -38.206700 -2.183000 
-9.261154 17.652808 -6.251501 -146.964455 69.425360 -145.968711 17.401342 1.306856 -3.267029 -17.277274 -11.626987 -24.932667 -1.124721 20.436855 46.763246 -1.647394 9.670059 -10.059080 12.489500 -18.590000 -67.532200 -24.847304 -4.517933 -4.958914 59.767585 6.117379 11.708802 15.656879 0.175029 0.007283 -3.128301 -12.884985 -35.123204 -0.036400 -1.230800 3.384000 6.132879 0.474002 12.090210 2.964065 1.665314 -4.509353 7.191215 1.324861 -15.163962 -7.108379 -8.821568 -12.299629 1.128717 -9.793554 18.953618 -1.221600 -4.118500 14.620300 7.295027 -5.865534 0.714658 -76.999416 -8.988241 32.204460 50.314291 -51.598168 -24.700854 -1.061204 1.654148 1.789955 31.197519 29.269951 16.046000 -7.125000 0.000000 0.000000 2.718300 61.046400 1.063100 -5.598354 5.203601 -1.293546 -9.479830 58.546112 -13.689742 -30.105282 40.756509 -10.231877 -0.070365 -1.430423 17.252905 -40.736374 -8.372893 5.640500 7.125000 0.000000 0.000000 -12.359300 -38.297600 -2.077800 
-8.918294 17.625691 -6.288718 -145.162799 69.675171 -144.433800 17.299672 0.968833 -3.298783 -16.769500 -12.492788 -25.776083 -3.083443 19.447513 41.556850 -1.662094 9.980902 -10.594715 12.489400 -18.590000 -67.531900 -25.191843 -4.560991 -5.084684 60.996339 5.919988 13.384043 15.859289 0.391543 -0.139146 -3.310947 -12.846370 -35.612434 -0.007300 -0.549900 1.511100 6.859518 0.568834 12.585534 3.038371 1.924921 -4.411477 7.133340 1.387089 -15.066603 -7.222004 -8.678503 -12.410767 1.014989 -9.513165 19.069849 -1.245300 -4.025200 14.730900 7.377616 -5.974689 0.778939 -77.774882 -6.870783 31.895843 48.563926 -51.079310 -23.461435 -1.056715 1.666747 1.293541 31.080224 29.694579 16.175000 -7.125000 0.000000 0.000000 2.429700 61.451300 0.973400 -5.635547 5.236587 -1.419962 -7.422706 58.402039 -11.402495 -30.509090 40.986767 -10.387095 -0.057198 -1.462717 16.945636 -39.700585 -8.155312 5.254300 7.125000 0.000000 0.000000 -11.445300 -37.921600 -2.026400 
-8.577301 17.596159 -6.326704 -143.371712 70.023173 -142.682762 17.152718 0.584152 -3.334914 -15.995651 -13.545597 -26.446795 -5.121885 18.047319 35.701824 -2.054200 11.269077 -10.038331 12.791900 -18.705700 -68.477900 -25.472011 -4.572334 -5.157092 62.101700 6.037068 14.893074 16.020783 0.608381 -0.285402 -3.586247 -12.096436 -36.632962 -0.058500 -1.560100 4.291500 7.376038 0.693760 12.875466 3.120920 2.186236 -4.347297 7.261692 1.482705 -14.949160 -7.408553 -8.518749 -12.513234 0.955657 -9.196418 19.155694 -1.220800 -3.923400 14.809300 7.466689 -6.045646 0.792250 -78.956430 -5.039144 31.316386 45.955482 -50.149070 -21.674382 -1.025950 1.704364 1.075913 31.389799 30.251718 16.598200 -7.125000 0.000000 0.000000 2.615000 62.071800 1.086100 -5.632251 5.230966 -1.371868 -7.364676 57.705800 -9.616005 -30.744766 41.118560 -10.454916 -0.040539 -1.459883 15.389776 -39.485620 -7.603880 4.762000 7.125000 0.000000 0.000000 -11.174400 -37.210800 -2.174800 
-8.232576 17.560150 -6.374131 -142.107849 70.509216 -141.228933 16.979063 0.149622 -3.324955 -15.124199 -15.131251 -26.822904 -7.154962 16.200487 29.217459 -2.500955 12.702922 -8.840231 12.859500 -18.730800 -68.688500 -25.689319 -4.557139 -5.224437 62.866724 6.259585 16.336146 16.178493 0.881966 -0.528028 -3.724381 -12.153153 -37.056353 -0.040700 -1.302200 3.580600 7.665122 0.842114 12.863790 3.182885 2.403777 -4.282013 7.413413 1.575614 -14.671682 -7.530449 -8.281924 -12.823072 1.013603 -8.782522 19.185226 -1.134800 -3.776400 14.898300 7.562315 -6.106050 0.813226 -80.203817 -3.355936 30.632966 42.990125 -48.958157 -19.758460 -0.987501 1.733311 0.818310 32.325120 31.788737 17.906800 -7.125000 0.000000 0.000000 3.278700 63.906300 1.503200 -5.668902 5.247173 -1.366402 -6.443851 57.093581 -7.327683 -30.784165 41.052015 -10.425813 -0.043279 -1.461003 14.625265 -39.536929 -7.098754 4.344900 7.125000 0.000000 0.000000 -11.138200 -36.563200 -2.347000 
-7.881263 17.515906 -6.430780 -140.710284 70.988624 -139.523298 16.792373 -0.345466 -3.239536 -13.705227 -17.578673 -26.824836 -8.911073 13.946642 22.315600 -2.885598 14.167656 -7.910707 12.913500 -18.750700 -68.856500 -25.867486 -4.579576 -5.336882 63.345212 5.923403 17.473248 16.284561 1.036506 -0.597479 -3.737376 -12.123889 -36.732665 -0.000800 -0.186900 0.513500 8.075103 0.974856 12.675300 3.235881 2.587892 -4.214317 7.426397 1.635275 -14.297185 -7.420054 -8.011937 -13.222698 0.952883 -8.387837 19.202732 -1.171400 -3.619300 14.976000 7.674856 -6.178689 0.852718 -81.426397 -1.511466 29.806780 40.082348 -47.642973 -17.948416 -0.939527 1.766332 0.836443 33.062245 33.462990 19.188700 -7.125000 0.000000 0.000000 3.626000 65.844600 1.825800 -5.729642 5.264595 -1.440834 -4.502426 56.809314 -4.655348 -30.583023 40.744517 -10.253546 -0.058087 -1.480071 14.752463 -39.191708 -6.910701 4.123700 7.125000 0.000000 0.000000 -10.816700 -36.280100 -2.353200 
-7.524790 17.467161 -6.494566 -138.703760 71.467158 -137.171564 16.648947 -0.894427 -3.077362 -11.459286 -21.033218 -26.591832 -10.069145 11.564241 15.494545 -3.539781 16.888110 -6.779640 13.362600 -18.909200 -70.248100 -25.995288 -4.661812 -5.497245 63.476315 4.835022 18.127297 16.283871 0.915876 -0.201899 -3.727407 -10.965403 -36.094767 -0.009600 0.632500 -1.738200 8.613374 1.107996 12.482444 3.276933 2.803249 -4.185696 7.370101 1.705686 -14.106989 -7.554525 -7.867697 -13.398464 0.987197 -8.108198 19.279377 -1.089800 -3.529100 15.083600 7.788094 -6.273723 0.906912 -82.702828 0.496857 28.871872 37.038722 -46.026945 -16.021722 -0.885554 1.842088 1.158403 32.609070 33.713372 18.960400 -7.125000 0.000000 0.000000 2.857600 65.912600 1.443000 -5.822870 5.312910 -1.573480 -1.649251 56.487074 -1.158671 -30.415656 40.443854 -10.121591 -0.075734 -1.503865 15.029290 -39.404998 -6.973115 4.173200 7.125000 0.000000 0.000000 -10.997400 -36.321900 -2.382300 
-7.161511 17.417868 -6.565377 -136.507560 72.036760 -134.485200 16.608215 -1.506173 -2.866800 -8.576705 -25.258314 -26.480963 -10.546250 9.505085 9.509072 -4.127819 19.624471 -7.203243 13.186300 -18.848400 -69.703300 -26.085614 -4.741001 -5.658322 63.355779 3.764734 18.526561 16.219926 0.675524 0.427367 -3.718088 -9.271284 -35.571700 -0.020000 0.913600 -2.511100 8.978188 1.271675 12.109587 3.314652 3.019383 -4.200170 7.317896 1.805453 -14.049915 -7.393670 -7.653984 -13.129285 0.895628 -7.870452 19.201122 -1.143000 -3.424900 14.917200 7.908618 -6.382763 0.974691 -83.804565 3.045724 28.138846 34.469534 -44.506909 -14.356765 -0.862338 1.929959 1.535737 30.764395 32.813820 17.302500 -7.125000 0.000000 0.000000 0.749600 64.399000 0.352100 -5.907211 5.364985 -1.702177 1.619264 55.784434 3.315246 -30.576461 40.396484 -10.186489 -0.068688 -1.525726 14.340107 -40.319480 -7.463894 4.675900 7.125000 0.000000 0.000000 -11.825000 -36.933700 -2.387400 
-6.791864 17.364622 -6.644093 -134.143066 72.683026 -131.565506 16.682754 -2.125628 -2.611691 -5.392666 -29.609986 -26.736664 -10.489839 8.102040 4.896731 -4.802115 22.789550 -8.440170 13.254500 -18.872100 -69.914100 -26.161323 -4.794622 -5.780725 63.125457 2.931424 18.897579 16.134345 0.407369 1.144203 -3.658984 -7.421485 -34.913342 -0.018200 0.871200 -2.394500 9.176060 1.469512 11.289186 3.357726 3.264690 -4.430097 7.387134 2.026149 -14.925009 -7.488947 -7.357278 -10.073757 0.797113 -7.598041 18.947440 -1.045100 -3.278000 13.923000 8.074775 -6.526627 1.076480 -85.384961 7.331005 27.498924 32.230521 -43.178742 -12.922483 -0.799420 2.028164 2.538671 29.168130 31.336679 15.590300 -7.125000 0.000000 0.000000 -0.676100 62.357200 -0.285200 -6.010331 5.407685 -1.908591 7.425725 54.669010 10.915942 -30.940322 40.324769 -10.279898 -0.064755 -1.583951 13.576693 -40.724855 -7.933147 5.065500 7.125000 0.000000 0.000000 -12.223500 -37.445700 -2.314500 
-6.415630 17.303581 -6.726981 -131.142844 73.232167 -128.032286 16.856837 -2.680831 -2.541072 -2.499034 -33.016712 -27.238639 -10.193384 7.420838 2.037238 -5.302689 25.088609 -9.905526 13.164300 -18.840700 -69.635000 -26.210267 -4.916975 -5.941969 62.926662 2.098170 19.275511 16.046472 0.025560 2.134189 -3.575956 -5.587110 -34.176817 -0.040000 1.290700 -3.549000 10.015228 1.574902 11.280941 3.322302 3.408996 -4.182625 6.894740 1.882813 -13.585938 -7.053963 -7.146636 -13.649863 0.660387 -7.157824 19.427038 -1.275500 -3.122200 15.163700 8.191127 -6.603634 1.064220 -86.739555 7.237479 24.955972 28.710891 -40.613845 -11.071321 -0.662251 2.138992 4.102669 29.169356 31.199718 15.444700 -7.125000 0.000000 0.000000 -0.673700 62.104400 -0.280200 -6.132406 5.425832 -1.938448 8.292062 54.804801 11.901570 -30.418216 39.818796 -9.955633 -0.077360 -1.610144 13.607053 -40.189233 -7.911594 4.935900 7.125000 0.000000 0.000000 -11.754600 -37.352100 -2.250100 
